<?xml version="1.0" encoding="UTF-8"?>
<svg id="Calque_1" data-name="Calque 1" xmlns="http://www.w3.org/2000/svg" xmlns:xlink="http://www.w3.org/1999/xlink" viewBox="0 0 396.2 148.33">
  <defs>
    <style>
      .cls-1 {
        fill: url(#Dégradé_sans_nom_14-2);
      }

      .cls-2 {
        fill: url(#Dégradé_sans_nom_14);
      }

      .cls-3 {
        fill: url(#Dégradé_sans_nom_14-3);
      }

      .cls-4 {
        clip-path: url(#clippath);
      }

      .cls-5 {
        fill: url(#Dégradé_sans_nom_14-5);
      }

      .cls-6 {
        fill: none;
      }

      .cls-7 {
        fill: url(#Dégradé_sans_nom_14-6);
      }

      .cls-8 {
        fill: url(#Dégradé_sans_nom_23);
      }

      .cls-9 {
        fill: url(#Dégradé_sans_nom_14-4);
      }
    </style>
    <clipPath id="clippath">
      <path class="cls-6" d="m151,114.1h-6.75c-4.35-.1-8.31-2.31-10.65-5.9-2.35-3.59-2.78-8.1-1.15-12.07l6.33-16.6,21.89-59.32L133.83,0H0v148.33h151v-34.24Z"/>
    </clipPath>
    <linearGradient id="Dégradé_sans_nom_23" data-name="Dégradé sans nom 23" x1="142.42" y1="76.23" x2="13.42" y2="76.23" gradientUnits="userSpaceOnUse">
      <stop offset=".27" stop-color="#388a25"/>
      <stop offset=".3" stop-color="#439022"/>
      <stop offset=".48" stop-color="#85b216"/>
      <stop offset=".64" stop-color="#b9cd0c"/>
      <stop offset=".78" stop-color="#dfe105"/>
      <stop offset=".89" stop-color="#f6ed01"/>
      <stop offset=".96" stop-color="#fff200"/>
    </linearGradient>
    <linearGradient id="Dégradé_sans_nom_14" data-name="Dégradé sans nom 14" x1="215.19" y1="15.8" x2="278.98" y2="-47.99" gradientTransform="translate(196.47 263.73) rotate(-107.99)" gradientUnits="userSpaceOnUse">
      <stop offset="0" stop-color="#419639"/>
      <stop offset=".22" stop-color="#71ad2a"/>
      <stop offset=".6" stop-color="#bdd213"/>
      <stop offset=".87" stop-color="#ece905"/>
      <stop offset="1" stop-color="#fff200"/>
    </linearGradient>
    <linearGradient id="Dégradé_sans_nom_14-2" data-name="Dégradé sans nom 14" x1="290.06" y1="40.11" x2="353.85" y2="-23.68" gradientTransform="translate(196.47 -189.99) rotate(107.99) scale(1 -1)" xlink:href="#Dégradé_sans_nom_14"/>
    <linearGradient id="Dégradé_sans_nom_14-3" data-name="Dégradé sans nom 14" x1="74.01" y1="208.17" x2="335.01" y2="-116.83" gradientTransform="matrix(1, 0, 0, 1, 0, 0)" xlink:href="#Dégradé_sans_nom_14"/>
    <linearGradient id="Dégradé_sans_nom_14-4" data-name="Dégradé sans nom 14" x1="109.48" y1="236.65" x2="370.48" y2="-88.35" gradientTransform="matrix(1, 0, 0, 1, 0, 0)" xlink:href="#Dégradé_sans_nom_14"/>
    <linearGradient id="Dégradé_sans_nom_14-5" data-name="Dégradé sans nom 14" x1="141.47" y1="262.34" x2="402.47" y2="-62.66" gradientTransform="matrix(1, 0, 0, 1, 0, 0)" xlink:href="#Dégradé_sans_nom_14"/>
    <linearGradient id="Dégradé_sans_nom_14-6" data-name="Dégradé sans nom 14" x1="192.2" y1="303.08" x2="453.2" y2="-21.92" gradientTransform="matrix(1, 0, 0, 1, 0, 0)" xlink:href="#Dégradé_sans_nom_14"/>
  </defs>
  <g class="cls-4">
    <path class="cls-8" d="m108.62,103.35c-.69.64-2.92,2.49-3.66,3.06h0s0,0,0,0c0,.02-.02.05-.03.07-6.16,4.36-13.85,6.72-22.11,6.07-9.14-.71-17.31-5.81-22.95-13.01-5.25-6.7-7.9-15.05-7.9-23.53v-.08c0-3.24.36-6.49,1.23-9.62,3.85-13.84,15.42-25.29,29.61-26.39,8.27-.64,15.97,1.72,22.13,6.08,0,0,0,.02,0,.02h0s0,0,0,0c.74.57,2.97,2.43,3.66,3.06,6.85,6.33,16.36,9.02,25.59,6.02l14.22-4.62C136.74,17.81,96.99-1.91,64.23,10.66c-10.26,3.94-17,8.74-23.65,15.17.05-.03.1-.05.14-.07-13.1,12.6-21.3,30.55-21.3,50.49s8.17,37.81,21.22,50.41c-.02-.01-.04-.02-.06-.03,6.64,6.43,13.39,11.24,23.65,15.17,32.77,12.57,72.51-7.16,84.2-39.85l-14.22-4.62c-9.23-3-18.74-.31-25.59,6.02Z"/>
    <path class="cls-2" d="m104.96,46.04h0s0,0,0,0c.74.57,2.97,2.43,3.66,3.06,6.85,6.33,16.36,9.02,25.59,6.02l14.22-4.62C136.74,17.81,96.99-1.91,64.23,10.66c-10.26,3.94-17,8.74-23.65,15.17,34.24-18.18,57.37-1.38,64.38,20.21Z"/>
    <path class="cls-1" d="m104.96,106.41h0s0,0,0,0c.74-.57,2.97-2.43,3.66-3.06,6.85-6.33,16.36-9.02,25.59-6.02l14.22,4.62c-11.69,32.7-51.44,52.42-84.2,39.85-10.26-3.94-17-8.74-23.65-15.17,34.24,18.18,57.37,1.38,64.38-20.21Z"/>
  </g>
  <g>
    <path class="cls-3" d="m144.25,111.1c-6.99-.17-11.7-7.31-9.03-13.83l22.93-55.92h15.05l-18.43,44.94h21.82l-9.86-23.91,11.26-9.67,23.82,58.39h-14.95l-5.18-12.36h-31.89c-1.44,4.69-5.53,12.35-5.53,12.35Zm.25,0"/>
    <path class="cls-9" d="m259.79,41.35h10.76v8.97l-32.18,48.53-18.24-27.4v39.66h-14.05V41.35h10.76l21.52,32.38,21.42-32.38Zm-3.29,69.75v-36.67l14.05-9.67v46.33h-14.05Z"/>
    <path class="cls-5" d="m318.58,43.29c2.99,1.3,5.61,3.06,7.87,5.28,2.26,2.23,4.04,4.83,5.33,7.82,1.3,2.99,1.94,6.18,1.94,9.57s-.65,6.58-1.94,9.57-3.07,5.58-5.33,7.77c-2.26,2.19-4.88,3.94-7.87,5.23-2.99,1.3-6.18,1.94-9.57,1.94h-7.77l-7.57-13.95h15.35c1.46,0,2.84-.28,4.13-.85,1.3-.56,2.41-1.36,3.34-2.39.93-1.03,1.68-2.26,2.24-3.69.56-1.43.85-3,.85-4.73,0-1.46-.28-2.87-.85-4.23-.57-1.36-1.31-2.57-2.24-3.64-.93-1.06-2.04-1.93-3.34-2.59-1.3-.66-2.67-1-4.13-1h-17.64v57.69h-13.85V41.35h31.49c3.39,0,6.58.65,9.57,1.94Z"/>
    <path class="cls-7" d="m376.07,98.75h-31.89l-5.28,12.36h-14.95l28.6-69.75h15.05l-18.43,44.94h21.82l-9.86-23.91,11.26-9.67,23.81,58.39h-14.95l-5.18-12.36Z"/>
  </g>
</svg>